<svg width="150" height="109" viewBox="0 0 150 109" fill="none" xmlns="http://www.w3.org/2000/svg">
<path opacity="0.3" d="M20.741 40.4826C20.741 40.4826 0.247292 85.3325 54.206 85.961C108.165 86.5896 132.832 79.7008 133.076 56.8944C133.32 34.0879 113.887 12.7639 80.0135 12.5277C46.1398 12.2916 27.821 20.8735 20.741 40.4826Z" fill="#E6E6E6"/>
<path d="M100.384 24.852H66.5332L66.9982 57.007H113.464V37.5251C113.464 34.1639 112.086 30.9405 109.633 28.5638C107.18 26.1872 103.853 24.852 100.384 24.852Z" fill="#E2AA25"/>
<path d="M66.5331 24.852C70.0022 24.852 73.3291 26.1872 75.7821 28.5638C78.2351 30.9405 79.6131 34.1639 79.6131 37.5251V57.007H53.4531V37.5251C53.4531 34.1639 54.8312 30.9405 57.2842 28.5638C59.7371 26.1872 63.0641 24.852 66.5331 24.852Z" fill="#24285B"/>
<path d="M66.5333 89.162C63.0642 89.162 59.7373 87.8268 57.2843 85.4501C54.8313 83.0735 53.4533 79.85 53.4533 76.4889V57.007H79.6133V76.4889C79.6133 79.85 78.2352 83.0735 75.7822 85.4501C73.3293 87.8268 70.0023 89.162 66.5333 89.162Z" fill="#E2AA25"/>
<path opacity="0.09" d="M66.5333 89.162C63.0642 89.162 59.7373 87.8268 57.2843 85.4501C54.8313 83.0735 53.4533 79.85 53.4533 76.4889V57.007H79.6133V76.4889C79.6133 79.85 78.2352 83.0735 75.7822 85.4501C73.3293 87.8268 70.0023 89.162 66.5333 89.162Z" fill="black"/>
<path d="M90.9459 10.6021C91.1448 10.6021 91.3355 10.6786 91.4762 10.8149C91.6168 10.9512 91.6959 11.136 91.6959 11.3287V38.0882H90.1621V11.3433C90.1621 11.1505 90.2411 10.9657 90.3818 10.8294C90.5224 10.6931 90.7132 10.6166 90.9121 10.6166L90.9459 10.6021Z" fill="#E2AA25"/>
<path opacity="0.44" d="M90.9459 10.6021C91.1448 10.6021 91.3355 10.6786 91.4762 10.8149C91.6168 10.9512 91.6959 11.136 91.6959 11.3287V38.0882H90.1621V11.3433C90.1621 11.1505 90.2411 10.9657 90.3818 10.8294C90.5224 10.6931 90.7132 10.6166 90.9121 10.6166L90.9459 10.6021Z" fill="white"/>
<path d="M90.9898 40.9295C92.6011 40.9295 93.9073 39.664 93.9073 38.1028C93.9073 36.5416 92.6011 35.2761 90.9898 35.2761C89.3785 35.2761 88.0723 36.5416 88.0723 38.1028C88.0723 39.664 89.3785 40.9295 90.9898 40.9295Z" fill="#FFD200"/>
<path d="M91.7109 11.3433H98.8922V14.0828L91.7109 15.845V11.3433Z" fill="#FFD200"/>
<path d="M97.2 57.007H84.5625V61.4579H97.2V57.007Z" fill="#24285B"/>
<path d="M93.9039 61.4578H87.7539V96.8756H93.9039V61.4578Z" fill="#E2AA25"/>
<path opacity="0.44" d="M93.9039 61.4578H87.7539V96.8756H93.9039V61.4578Z" fill="white"/>
<path opacity="0.09" d="M87.7539 61.4578V73.3279L93.9039 69.5311V61.4578H87.7539Z" fill="black"/>
<path d="M35.1307 37.8775C42.6404 37.8775 48.7282 32.2621 48.7282 25.3352C48.7282 18.4083 42.6404 12.793 35.1307 12.793C27.621 12.793 21.5332 18.4083 21.5332 25.3352C21.5332 32.2621 27.621 37.8775 35.1307 37.8775Z" fill="#FFD200"/>
<path d="M41.5605 34.582L50.0843 38.6586L43.8368 30.9923L41.5605 34.582Z" fill="#FFD200"/>
<path d="M41.6849 25.1935C42.1714 24.927 42.5689 24.5312 42.8307 24.0529C43.0925 23.5746 43.2076 23.0336 43.1624 22.494C43.1265 21.9164 42.8984 21.3657 42.5124 20.9243C42.1264 20.4828 41.6032 20.1744 41.0212 20.0451C39.9712 19.7835 37.8937 19.8198 37.4287 21.0043C36.8399 22.494 38.6287 23.5186 38.6212 24.9356C38.6239 25.2912 38.5473 25.6432 38.3965 25.9675C38.2458 26.2917 38.0244 26.5806 37.7477 26.8142C37.4709 27.0478 37.1453 27.2207 36.7932 27.321C36.441 27.4213 36.0706 27.4467 35.7074 27.3953C34.8532 27.2204 34.0632 26.8264 33.4199 26.2545C32.9099 25.8366 32.4412 25.1427 31.7662 24.9646C31.0912 24.7866 30.4162 25.3607 29.9437 25.7967C29.3692 26.2706 28.9735 26.916 28.8187 27.6315C28.5674 29.1284 29.7937 30.0041 31.1812 30.2039C32.0132 30.3198 32.8602 30.284 33.6787 30.0985C34.2899 29.9605 35.0324 29.7352 35.4149 29.2193C35.8387 28.6307 35.5274 28.0094 35.1412 27.4898C34.6913 26.877 34.1787 26.3097 33.6112 25.7967C33.0337 25.2873 32.4057 24.8346 31.7362 24.4451C31.0509 24.0786 30.3462 23.7476 29.6249 23.4532C27.9599 22.6974 29.0174 20.2922 29.9774 19.362C30.5174 18.8388 31.3312 18.3411 32.1262 18.4246C33.0262 18.5191 33.1612 19.3984 32.9624 20.1032C32.5237 21.6401 30.9599 22.5775 29.5049 23.0644C26.5349 24.0527 27.0224 27.9767 28.5524 29.9387C30.3974 32.3258 33.8024 32.8889 36.5812 31.7771C37.7962 31.2866 39.2512 30.302 38.6624 28.8414C38.3487 28.1576 37.9386 27.5193 37.4437 26.9448C37.0034 26.3654 36.4537 25.8723 35.8237 25.4915C34.7699 24.8847 33.3187 24.7939 32.2912 25.5133C30.9412 26.4652 31.4999 28.0057 31.3124 29.361C31.2299 29.9496 30.8774 30.7889 30.1874 30.8506C29.7337 30.8906 29.3437 30.5527 29.0287 30.2802C28.6981 29.9956 28.3826 29.6949 28.0837 29.3791C27.5127 28.7606 27.01 28.086 26.5837 27.3663C26.1449 26.6396 25.6349 25.7603 25.6762 24.8811C25.7549 23.2606 27.8624 22.3159 29.2012 21.8145C30.9937 21.1424 32.7862 21.3604 34.6087 21.7891C35.4899 21.9962 36.3637 22.2324 37.2337 22.3959C38.0062 22.5376 38.8949 22.7156 39.6487 22.3959C40.8412 21.9017 41.3399 20.3576 41.4637 19.2094C41.5662 18.6164 41.4234 18.008 41.0662 17.5163C40.6124 16.9749 39.9074 16.8805 39.2287 16.855C37.7287 16.7933 35.9474 16.8151 34.9424 18.094C34.0499 19.2276 34.6237 20.4411 35.3174 21.4948C35.6924 22.0689 36.1424 22.6829 36.1837 23.3878C36.2008 23.7629 36.1176 24.136 35.9422 24.4708C35.7668 24.8056 35.5051 25.0909 35.1824 25.2989C34.6837 25.615 33.9674 25.6622 33.6374 26.2109C33.3074 26.7595 33.6749 27.5552 33.9299 28.0966C34.5323 29.339 35.5176 30.3697 36.7499 31.0468C38.0737 31.7735 39.8099 32.1695 41.1374 31.243C42.4012 30.3601 43.2899 28.8378 43.7062 27.4062C43.9162 26.6796 43.9274 25.9529 43.3612 25.4079C42.7651 24.8793 42.0753 24.4595 41.3249 24.1689C40.1437 23.6566 38.4374 23.5295 37.6049 24.6994C37.4344 24.9397 37.3234 25.2148 37.2805 25.5034C37.2375 25.792 37.2639 26.0863 37.3574 26.3635C37.4752 26.6378 37.6648 26.8776 37.9074 27.0592C38.1501 27.2408 38.4375 27.3579 38.7412 27.399C40.2412 27.7114 42.1162 27.8786 43.5562 27.25C44.7149 26.745 45.6674 25.6114 45.5249 24.3433C45.4874 23.9982 44.9249 23.98 44.9624 24.3433C45.1274 25.7967 43.7249 26.8176 42.3712 27.0393C41.5663 27.1483 40.7498 27.1483 39.9449 27.0393C39.3037 26.9702 38.2987 26.9775 37.9462 26.338C37.8042 26.027 37.7895 25.6754 37.9051 25.3543C38.0207 25.0331 38.2579 24.7666 38.5687 24.6086C38.8918 24.4551 39.2444 24.3684 39.604 24.354C39.9636 24.3396 40.3223 24.3978 40.6574 24.525C41.3856 24.7778 42.0697 25.1368 42.6862 25.5896C42.8827 25.7073 43.0425 25.8747 43.1482 26.0738C43.2539 26.2729 43.3016 26.4961 43.2862 26.7195C43.2324 27.1436 43.1136 27.5575 42.9337 27.9476C42.4124 29.2374 41.3512 30.9814 39.8174 31.2394C38.3999 31.4792 36.8174 30.6653 35.8349 29.7534C35.3549 29.3193 34.9475 28.8155 34.6274 28.2601C34.4625 27.9747 34.3245 27.6756 34.2149 27.3663C34.0687 26.9593 33.9599 26.5415 34.3912 26.2763C34.9124 25.9674 35.4749 25.873 35.9249 25.4333C36.3303 25.0367 36.6011 24.5297 36.7012 23.98C36.9224 22.7774 36.1649 21.8363 35.5762 20.8662C35.2537 20.3576 34.9424 19.7762 35.0587 19.1622C35.143 18.836 35.3064 18.534 35.5353 18.2812C35.7642 18.0285 36.0521 17.8323 36.3749 17.7089C37.1859 17.4256 38.0523 17.3225 38.9099 17.4073C39.6599 17.4073 40.5412 17.4073 40.8299 18.2175C40.9926 18.818 40.9599 19.4525 40.7362 20.0342C40.5846 20.6702 40.2413 21.2481 39.7499 21.6946C39.0712 22.2251 38.0587 21.9926 37.2787 21.8436C36.4987 21.6946 35.7337 21.4803 34.9649 21.3131C33.4912 20.9498 31.9649 20.6555 30.4649 20.8917C29.0364 21.1425 27.6896 21.7178 26.5349 22.5703C25.5074 23.3224 24.8699 24.3688 25.1737 25.6477C25.4774 26.9266 26.3624 28.2128 27.2212 29.2374C27.695 29.8067 28.2236 30.3311 28.7999 30.8034C28.9984 31.0034 29.2404 31.1581 29.5083 31.2561C29.7762 31.3542 30.0633 31.3931 30.3487 31.3702C31.4287 31.1813 31.8899 29.9423 31.9087 29.0085C31.9087 28.2819 31.7774 27.5552 31.9837 26.854C32.0756 26.5565 32.246 26.2873 32.4782 26.0732C32.7104 25.8591 32.9962 25.7074 33.3074 25.6332C34.6949 25.2698 35.9324 26.0292 36.8024 27.0211C37.2666 27.5569 37.6725 28.1377 38.0137 28.7542C38.4712 29.5826 38.1299 30.2657 37.3762 30.7671C35.0324 32.3294 31.4249 32.1259 29.4412 30.1058C28.5045 29.1608 27.9575 27.9161 27.9037 26.6069C27.8672 25.951 27.9959 25.2964 28.2787 24.6994C28.6537 23.9727 29.2387 23.7293 29.9887 23.475C31.2412 23.0634 32.3166 22.2593 33.0449 21.1896C33.5737 20.4048 33.9187 19.1477 33.1912 18.3701C32.3212 17.4327 30.8399 17.9777 29.9737 18.6281C29.0326 19.3446 28.4144 20.3863 28.2487 21.5348C28.1662 22.1197 28.1549 22.8246 28.5224 23.3296C28.8899 23.8347 29.4524 23.98 29.9999 24.1871C31.3756 24.7351 32.6212 25.5499 33.6599 26.5815C34.2004 27.058 34.6543 27.6193 35.0024 28.2419C35.4037 29.0994 34.1699 29.4191 33.5549 29.5572C32.3399 29.8333 29.8312 29.9459 29.4299 28.4018C29.2237 27.6206 29.6549 26.8612 30.2024 26.3199C30.4649 26.0511 30.7624 25.8166 31.0874 25.6223C31.5749 25.3461 31.9237 25.5932 32.2724 25.9311C33.2324 26.8576 34.3387 27.7478 35.7262 27.9403C36.2747 28.0009 36.83 27.9187 37.3348 27.7021C37.8396 27.4856 38.2757 27.1425 38.5982 26.7083C38.9206 26.2742 39.1177 25.7645 39.1692 25.2319C39.2207 24.6994 39.1248 24.1631 38.8912 23.6784C38.5612 23.0281 37.9387 22.4358 37.9087 21.6765C37.8712 20.8226 38.6587 20.6192 39.3862 20.5138C40.6687 20.3249 42.2099 20.7391 42.5587 22.1016C42.6948 22.5978 42.6583 23.1237 42.455 23.5979C42.2516 24.0721 41.8927 24.4681 41.4337 24.7248C41.1149 24.8847 41.3962 25.357 41.7187 25.1935H41.6849Z" fill="white"/>
</svg>
